<svg id="my-svg" width="100%" xmlns="http://www.w3.org/2000/svg" xmlns:xlink="http://www.w3.org/1999/xlink" class="statediagram" style="max-width: 1666.97px; background-color: transparent;" viewBox="0 0 1666.96875 970.0750122070312" role="graphics-document document" aria-roledescription="stateDiagram"><style>#my-svg{font-family:Arial;font-size:14px;fill:#333;}@keyframes edge-animation-frame{from{stroke-dashoffset:0;}}@keyframes dash{to{stroke-dashoffset:0;}}#my-svg .edge-animation-slow{stroke-dasharray:9,5!important;stroke-dashoffset:900;animation:dash 50s linear infinite;stroke-linecap:round;}#my-svg .edge-animation-fast{stroke-dasharray:9,5!important;stroke-dashoffset:900;animation:dash 20s linear infinite;stroke-linecap:round;}#my-svg .error-icon{fill:hsl(220.5882352941, 100%, 98.3333333333%);}#my-svg .error-text{fill:rgb(8.5000000002, 5.7500000001, 0);stroke:rgb(8.5000000002, 5.7500000001, 0);}#my-svg .edge-thickness-normal{stroke-width:1px;}#my-svg .edge-thickness-thick{stroke-width:3.5px;}#my-svg .edge-pattern-solid{stroke-dasharray:0;}#my-svg .edge-thickness-invisible{stroke-width:0;fill:none;}#my-svg .edge-pattern-dashed{stroke-dasharray:3;}#my-svg .edge-pattern-dotted{stroke-dasharray:2;}#my-svg .marker{fill:#0b0b0b;stroke:#0b0b0b;}#my-svg .marker.cross{stroke:#0b0b0b;}#my-svg svg{font-family:Arial;font-size:14px;}#my-svg p{margin:0;}#my-svg defs [id$="-barbEnd"]{fill:#0b0b0b;stroke:#0b0b0b;}#my-svg g.stateGroup text{fill:hsl(40.5882352941, 60%, 83.3333333333%);stroke:none;font-size:10px;}#my-svg g.stateGroup text{fill:#333;stroke:none;font-size:10px;}#my-svg g.stateGroup .state-title{font-weight:bolder;fill:#333;}#my-svg g.stateGroup rect{fill:#fff4dd;stroke:hsl(40.5882352941, 60%, 83.3333333333%);}#my-svg g.stateGroup line{stroke:#0b0b0b;stroke-width:1;}#my-svg .transition{stroke:#0b0b0b;stroke-width:1;fill:none;}#my-svg .stateGroup .composit{fill:#f4f4f4;border-bottom:1px;}#my-svg .stateGroup .alt-composit{fill:#e0e0e0;border-bottom:1px;}#my-svg .state-note{stroke:hsl(52.6829268293, 60%, 73.9215686275%);fill:#fff5ad;}#my-svg .state-note text{fill:#333;stroke:none;font-size:10px;}#my-svg .stateLabel .box{stroke:none;stroke-width:0;fill:#fff4dd;opacity:0.5;}#my-svg .edgeLabel .label rect{fill:#fff4dd;opacity:0.5;}#my-svg .edgeLabel{background-color:hsl(-79.4117647059, 100%, 93.3333333333%);text-align:center;}#my-svg .edgeLabel p{background-color:hsl(-79.4117647059, 100%, 93.3333333333%);}#my-svg .edgeLabel rect{opacity:0.5;background-color:hsl(-79.4117647059, 100%, 93.3333333333%);fill:hsl(-79.4117647059, 100%, 93.3333333333%);}#my-svg .edgeLabel .label text{fill:#333;}#my-svg .label div .edgeLabel{color:#333;}#my-svg .stateLabel text{fill:#333;font-size:10px;font-weight:bold;}#my-svg .node circle.state-start{fill:#0b0b0b;stroke:#0b0b0b;}#my-svg .node .fork-join{fill:#0b0b0b;stroke:#0b0b0b;}#my-svg .node circle.state-end{fill:hsl(40.5882352941, 60%, 83.3333333333%);stroke:#f4f4f4;stroke-width:1.5;}#my-svg .end-state-inner{fill:#f4f4f4;stroke-width:1.5;}#my-svg .node rect{fill:#fff4dd;stroke:hsl(40.5882352941, 60%, 83.3333333333%);stroke-width:1px;}#my-svg .node polygon{fill:#fff4dd;stroke:hsl(40.5882352941, 60%, 83.3333333333%);stroke-width:1px;}#my-svg [id$="-barbEnd"]{fill:#0b0b0b;}#my-svg .statediagram-cluster rect{fill:#fff4dd;stroke:hsl(40.5882352941, 60%, 83.3333333333%);stroke-width:1px;}#my-svg .cluster-label,#my-svg .nodeLabel{color:#333;}#my-svg .statediagram-cluster rect.outer{rx:5px;ry:5px;}#my-svg .statediagram-state .divider{stroke:hsl(40.5882352941, 60%, 83.3333333333%);}#my-svg .statediagram-state .title-state{rx:5px;ry:5px;}#my-svg .statediagram-cluster.statediagram-cluster .inner{fill:#f4f4f4;}#my-svg .statediagram-cluster.statediagram-cluster-alt .inner{fill:hsl(220.5882352941, 100%, 98.3333333333%);}#my-svg .statediagram-cluster .inner{rx:0;ry:0;}#my-svg .statediagram-state rect.basic{rx:5px;ry:5px;}#my-svg .statediagram-state rect.divider{stroke-dasharray:10,10;fill:hsl(220.5882352941, 100%, 98.3333333333%);}#my-svg .note-edge{stroke-dasharray:5;}#my-svg .statediagram-note rect{fill:#fff5ad;stroke:hsl(52.6829268293, 60%, 73.9215686275%);stroke-width:1px;rx:0;ry:0;}#my-svg .statediagram-note rect{fill:#fff5ad;stroke:hsl(52.6829268293, 60%, 73.9215686275%);stroke-width:1px;rx:0;ry:0;}#my-svg .statediagram-note text{fill:#333;}#my-svg .statediagram-note .nodeLabel{color:#333;}#my-svg .statediagram .edgeLabel{color:red;}#my-svg [id$="-dependencyStart"],#my-svg [id$="-dependencyEnd"]{fill:#0b0b0b;stroke:#0b0b0b;stroke-width:1;}#my-svg .statediagramTitleText{text-anchor:middle;font-size:18px;fill:#333;}#my-svg [data-look="neo"].statediagram-cluster rect{fill:#fff4dd;stroke:url(#my-svg-gradient);stroke-width:1;}#my-svg [data-look="neo"].statediagram-cluster rect.outer{rx:5px;ry:5px;filter:drop-shadow( 1px 2px 2px rgba(185,185,185,1));}#my-svg .node .neo-node{stroke:hsl(40.5882352941, 60%, 83.3333333333%);}#my-svg [data-look="neo"].node rect,#my-svg [data-look="neo"].cluster rect,#my-svg [data-look="neo"].node polygon{stroke:url(#my-svg-gradient);filter:drop-shadow( 1px 2px 2px rgba(185,185,185,1));}#my-svg [data-look="neo"].node path{stroke:url(#my-svg-gradient);stroke-width:1px;}#my-svg [data-look="neo"].node .outer-path{filter:drop-shadow( 1px 2px 2px rgba(185,185,185,1));}#my-svg [data-look="neo"].node .neo-line path{stroke:hsl(40.5882352941, 60%, 83.3333333333%);filter:none;}#my-svg [data-look="neo"].node circle{stroke:url(#my-svg-gradient);filter:drop-shadow( 1px 2px 2px rgba(185,185,185,1));}#my-svg [data-look="neo"].node circle .state-start{fill:#000000;}#my-svg [data-look="neo"].icon-shape .icon{fill:url(#my-svg-gradient);filter:drop-shadow( 1px 2px 2px rgba(185,185,185,1));}#my-svg [data-look="neo"].icon-shape .icon-neo path{stroke:url(#my-svg-gradient);filter:drop-shadow( 1px 2px 2px rgba(185,185,185,1));}#my-svg :root{--mermaid-font-family:"trebuchet ms",verdana,arial,sans-serif;}</style><g><defs><marker id="my-svg_stateDiagram-barbEnd" refX="19" refY="7" markerWidth="20" markerHeight="14" markerUnits="userSpaceOnUse" orient="auto"><path d="M 19,7 L9,13 L14,7 L9,1 Z"/></marker></defs><g class="root"><g class="clusters"><g class="note-cluster" id="my-svg-state-Held----parent-8"><rect x="518.96875" y="8" width="280" height="331" fill="none"/></g><g class="note-cluster" id="my-svg-state-Confirmed----parent-9"><rect x="1048.96875" y="286.52500000037253" width="280" height="205" fill="none"/></g><g class="note-cluster" id="my-svg-state-Expired----parent-10"><rect x="1378.96875" y="757.0750000011176" width="280" height="205" fill="none"/></g></g><g class="edgePaths"><path d="M22,584.325L42.223,584.325C62.445,584.325,102.891,584.325,143.336,584.325C183.781,584.325,224.227,584.325,244.449,584.325L264.672,584.325" id="my-svg-edge0" class="edge-thickness-normal edge-pattern-solid transition" style="fill:none;;;fill:none" data-edge="true" data-et="edge" data-id="edge0" data-points="W3sieCI6MjIsInkiOjU4NC4zMjUwMDAwMDExMTc2fSx7IngiOjE0My4zMzU5Mzc1LCJ5Ijo1ODQuMzI1MDAwMDAxMTE3Nn0seyJ4IjoyNjQuNjcxODc1LCJ5Ijo1ODQuMzI1MDAwMDAxMTE3Nn1d" data-look="classic" marker-end="url(#my-svg_stateDiagram-barbEnd)"/><path d="M309.469,568.823L326.927,556.74C344.385,544.657,379.302,520.491,414.219,508.408C449.135,496.325,484.052,496.325,518.128,496.325C552.203,496.325,585.438,496.325,602.055,496.325L618.672,496.325" id="my-svg-edge1" class="edge-thickness-normal edge-pattern-solid transition" style="fill:none;;;fill:none" data-edge="true" data-et="edge" data-id="edge1" data-points="W3sieCI6MzA5LjQ2ODc1LCJ5Ijo1NjguODIyOTQxNjI5MzgxOH0seyJ4Ijo0MTQuMjE4NzUsInkiOjQ5Ni4zMjUwMDAwMDExMTc2fSx7IngiOjUxOC45Njg3NSwieSI6NDk2LjMyNTAwMDAwMTExNzZ9LHsieCI6NjE4LjY3MTg3NSwieSI6NDk2LjMyNTAwMDAwMTExNzZ9XQ==" data-look="classic" marker-end="url(#my-svg_stateDiagram-barbEnd)"/><path d="M309.469,596.26L326.927,605.562C344.385,614.865,379.302,633.47,414.219,642.772C449.135,652.075,484.052,652.075,524.844,652.075C565.635,652.075,612.302,652.075,658.969,652.075C705.635,652.075,752.302,652.075,796.469,652.075C840.635,652.075,882.302,652.075,923.969,652.075C965.635,652.075,1007.302,652.075,1045.206,656.01C1083.109,659.946,1117.25,667.816,1134.32,671.752L1151.391,675.687" id="my-svg-edge2" class="edge-thickness-normal edge-pattern-solid transition" style="fill:none;;;fill:none" data-edge="true" data-et="edge" data-id="edge2" data-points="W3sieCI6MzA5LjQ2ODc1LCJ5Ijo1OTYuMjU5ODIzMzQ5ODExOX0seyJ4Ijo0MTQuMjE4NzUsInkiOjY1Mi4wNzUwMDAwMDExMTc2fSx7IngiOjUxOC45Njg3NSwieSI6NjUyLjA3NTAwMDAwMTExNzZ9LHsieCI6NjU4Ljk2ODc1LCJ5Ijo2NTIuMDc1MDAwMDAxMTE3Nn0seyJ4Ijo3OTguOTY4NzUsInkiOjY1Mi4wNzUwMDAwMDExMTc2fSx7IngiOjkyMy45Njg3NSwieSI6NjUyLjA3NTAwMDAwMTExNzZ9LHsieCI6MTA0OC45Njg3NSwieSI6NjUyLjA3NTAwMDAwMTExNzZ9LHsieCI6MTE1MS4zOTA2MjUsInkiOjY3NS42ODY5MDAxMTI5OTczfV0=" data-look="classic" marker-end="url(#my-svg_stateDiagram-barbEnd)"/><path d="M297.489,602.825L316.944,637.371C336.399,671.917,375.309,741.008,412.222,775.554C449.135,810.1,484.052,810.1,524.844,810.1C565.635,810.1,612.302,810.1,658.969,810.1C705.635,810.1,752.302,810.1,796.469,810.1C840.635,810.1,882.302,810.1,923.969,810.1C965.635,810.1,1007.302,810.1,1046.18,810.1C1085.057,810.1,1121.146,810.1,1139.19,810.1L1157.234,810.1" id="my-svg-edge3" class="edge-thickness-normal edge-pattern-solid transition" style="fill:none;;;fill:none" data-edge="true" data-et="edge" data-id="edge3" data-points="W3sieCI6Mjk3LjQ4ODg1MzQ5NzY1NzUsInkiOjYwMi44MjUwMDAwMDExMTc2fSx7IngiOjQxNC4yMTg3NSwieSI6ODEwLjEwMDAwMDAwMTQ5MDF9LHsieCI6NTE4Ljk2ODc1LCJ5Ijo4MTAuMTAwMDAwMDAxNDkwMX0seyJ4Ijo2NTguOTY4NzUsInkiOjgxMC4xMDAwMDAwMDE0OTAxfSx7IngiOjc5OC45Njg3NSwieSI6ODEwLjEwMDAwMDAwMTQ5MDF9LHsieCI6OTIzLjk2ODc1LCJ5Ijo4MTAuMTAwMDAwMDAxNDkwMX0seyJ4IjoxMDQ4Ljk2ODc1LCJ5Ijo4MTAuMTAwMDAwMDAxNDkwMX0seyJ4IjoxMTU3LjIzNDM3NSwieSI6ODEwLjEwMDAwMDAwMTQ5MDF9XQ==" data-look="classic" marker-end="url(#my-svg_stateDiagram-barbEnd)"/><path d="M302.096,565.825L320.783,542.817C339.47,519.808,376.844,473.792,412.99,450.783C449.135,427.775,484.052,427.775,524.835,427.775C565.619,427.775,612.269,427.775,635.594,427.775L658.919,427.775" id="my-svg-Held-cyclic-special-1" class="edge-thickness-normal edge-pattern-solid transition" style="fill:none;;;fill:none" data-edge="true" data-et="edge" data-id="Held-cyclic-special-1" data-points="W3sieCI6MzAyLjA5NTgzODQ5MDAyNzUsInkiOjU2NS44MjUwMDAwMDExMTc2fSx7IngiOjQxNC4yMTg3NSwieSI6NDI3Ljc3NTAwMDAwMDM3MjUzfSx7IngiOjUxOC45Njg3NSwieSI6NDI3Ljc3NTAwMDAwMDM3MjUzfSx7IngiOjY1OC45MTg3NDk5OTkyNTQ5LCJ5Ijo0MjcuNzc1MDAwMDAwMzcyNTN9XQ==" data-look="classic"/><path d="M659.019,427.808L682.344,443.015C705.669,458.222,752.319,488.636,796.477,503.843C840.635,519.05,882.302,519.05,923.969,519.05C965.635,519.05,1007.302,519.05,1051.46,531.179C1095.619,543.308,1142.269,567.566,1165.594,579.695L1188.919,591.824" id="my-svg-Held-cyclic-special-mid" class="edge-thickness-normal edge-pattern-solid transition" style="fill:none;;;fill:none" data-edge="true" data-et="edge" data-id="Held-cyclic-special-mid" data-points="W3sieCI6NjU5LjAxODc1MDAwMDc0NTEsInkiOjQyNy44MDc1OTgyMTUxNDQxNH0seyJ4Ijo3OTguOTY4NzUsInkiOjUxOS4wNTAwMDAwMDA3NDUxfSx7IngiOjkyMy45Njg3NSwieSI6NTE5LjA1MDAwMDAwMDc0NTF9LHsieCI6MTA0OC45Njg3NSwieSI6NTE5LjA1MDAwMDAwMDc0NTF9LHsieCI6MTE4OC45MTg3NDk5OTkyNTUsInkiOjU5MS44MjQwMDAwMDExMDI0fV0=" data-look="classic"/><path d="M1188.919,591.857L1165.594,595.06C1142.269,598.263,1095.619,604.669,1051.46,607.872C1007.302,611.075,965.635,611.075,923.969,611.075C882.302,611.075,840.635,611.075,796.469,611.075C752.302,611.075,705.635,611.075,658.969,611.075C612.302,611.075,565.635,611.075,524.844,611.075C484.052,611.075,449.135,611.075,414.219,607.402C379.302,603.729,344.385,596.383,326.927,592.71L309.469,589.037" id="my-svg-Held-cyclic-special-2" class="edge-thickness-normal edge-pattern-solid transition" style="fill:none;;;fill:none" data-edge="true" data-et="edge" data-id="Held-cyclic-special-2" data-points="W3sieCI6MTE4OC45MTg3NDk5OTkyNTUsInkiOjU5MS44NTY4NjYwNzMwMjA5fSx7IngiOjEwNDguOTY4NzUsInkiOjYxMS4wNzUwMDAwMDExMTc2fSx7IngiOjkyMy45Njg3NSwieSI6NjExLjA3NTAwMDAwMTExNzZ9LHsieCI6Nzk4Ljk2ODc1LCJ5Ijo2MTEuMDc1MDAwMDAxMTE3Nn0seyJ4Ijo2NTguOTY4NzUsInkiOjYxMS4wNzUwMDAwMDExMTc2fSx7IngiOjUxOC45Njg3NSwieSI6NjExLjA3NTAwMDAwMTExNzZ9LHsieCI6NDE0LjIxODc1LCJ5Ijo2MTEuMDc1MDAwMDAxMTE3Nn0seyJ4IjozMDkuNDY4NzUsInkiOjU4OS4wMzcyNzM0MjY2MTY4fV0=" data-look="classic" marker-end="url(#my-svg_stateDiagram-barbEnd)"/><path d="M671.967,514.825L693.134,544.95C714.301,575.075,756.635,635.325,798.635,665.45C840.635,695.575,882.302,695.575,923.969,695.575C965.635,695.575,1007.302,695.575,1045.206,694.206C1083.109,692.838,1117.25,690.1,1134.32,688.732L1151.391,687.363" id="my-svg-edge5" class="edge-thickness-normal edge-pattern-solid transition" style="fill:none;;;fill:none" data-edge="true" data-et="edge" data-id="edge5" data-points="W3sieCI6NjcxLjk2NzQ5NTI5NDg1NTcsInkiOjUxNC44MjUwMDAwMDExMTc2fSx7IngiOjc5OC45Njg3NSwieSI6Njk1LjU3NTAwMDAwMTExNzZ9LHsieCI6OTIzLjk2ODc1LCJ5Ijo2OTUuNTc1MDAwMDAxMTE3Nn0seyJ4IjoxMDQ4Ljk2ODc1LCJ5Ijo2OTUuNTc1MDAwMDAxMTE3Nn0seyJ4IjoxMTUxLjM5MDYyNSwieSI6Njg3LjM2Mjk2MDM4MDg1NDR9XQ==" data-look="classic" marker-end="url(#my-svg_stateDiagram-barbEnd)"/><path d="M1226.547,684.35L1243.617,684.35C1260.688,684.35,1294.828,684.35,1316.065,684.35C1337.302,684.35,1345.635,684.35,1353.969,684.35C1362.302,684.35,1370.635,684.35,1396.971,685.933C1423.306,687.517,1467.643,690.684,1489.811,692.267L1511.98,693.851" id="my-svg-edge6" class="edge-thickness-normal edge-pattern-solid transition" style="fill:none;;;fill:none" data-edge="true" data-et="edge" data-id="edge6" data-points="W3sieCI6MTIyNi41NDY4NzUsInkiOjY4NC4zNTAwMDAwMDE0OTAxfSx7IngiOjEzMjguOTY4NzUsInkiOjY4NC4zNTAwMDAwMDE0OTAxfSx7IngiOjEzNTMuOTY4NzUsInkiOjY4NC4zNTAwMDAwMDE0OTAxfSx7IngiOjEzNzguOTY4NzUsInkiOjY4NC4zNTAwMDAwMDE0OTAxfSx7IngiOjE1MTEuOTc5OTA5MzU5MTI2NiwieSI6NjkzLjg1MDc5NzA5ODU3MDZ9XQ==" data-look="classic" marker-end="url(#my-svg_stateDiagram-barbEnd)"/><path d="M1219.793,791.6L1237.989,780.679C1256.185,769.758,1292.577,747.917,1314.939,736.996C1337.302,726.075,1345.635,726.075,1353.969,726.075C1362.302,726.075,1370.635,726.075,1396.997,721.046C1423.358,716.016,1467.746,705.957,1489.941,700.928L1512.135,695.898" id="my-svg-edge7" class="edge-thickness-normal edge-pattern-solid transition" style="fill:none;;;fill:none" data-edge="true" data-et="edge" data-id="edge7" data-points="W3sieCI6MTIxOS43OTI5MDk0NzYyMDk2LCJ5Ijo3OTEuNjAwMDAwMDAxNDkwMX0seyJ4IjoxMzI4Ljk2ODc1LCJ5Ijo3MjYuMDc1MDAwMDAxMTE3Nn0seyJ4IjoxMzUzLjk2ODc1LCJ5Ijo3MjYuMDc1MDAwMDAxMTE3Nn0seyJ4IjoxMzc4Ljk2ODc1LCJ5Ijo3MjYuMDc1MDAwMDAxMTE3Nn0seyJ4IjoxNTEyLjEzNTM1NzExNjMxMiwieSI6Njk1Ljg5ODQ5NTYzODg2NDh9XQ==" data-look="classic" marker-end="url(#my-svg_stateDiagram-barbEnd)"/><path d="M292.796,565.825L313.033,500.438C333.27,435.05,373.744,304.275,411.44,238.888C449.135,173.5,484.052,173.5,505.677,173.5C527.302,173.5,535.635,173.5,539.802,173.5L543.969,173.5" id="my-svg-Held-Held----note-8" class="edge-thickness-normal edge-pattern-solid transition note-edge" style="fill:none;;;fill:none" data-edge="true" data-et="edge" data-id="Held-Held----note-8" data-points="W3sieCI6MjkyLjc5NTk3Njk0MDQzOTYzLCJ5Ijo1NjUuODI1MDAwMDAxMTE3Nn0seyJ4Ijo0MTQuMjE4NzUsInkiOjE3My41fSx7IngiOjUxOC45Njg3NSwieSI6MTczLjV9LHsieCI6NTQzLjk2ODc1LCJ5IjoxNzMuNX1d" data-look="classic"/><path d="M683.107,477.825L702.417,463.025C721.727,448.225,760.348,418.625,800.492,403.825C840.635,389.025,882.302,389.025,923.969,389.025C965.635,389.025,1007.302,389.025,1032.302,389.025C1057.302,389.025,1065.635,389.025,1069.802,389.025L1073.969,389.025" id="my-svg-Confirmed-Confirmed----note-9" class="edge-thickness-normal edge-pattern-solid transition note-edge" style="fill:none;;;fill:none" data-edge="true" data-et="edge" data-id="Confirmed-Confirmed----note-9" data-points="W3sieCI6NjgzLjEwNjY4MTAzNDMxNTEsInkiOjQ3Ny44MjUwMDAwMDExMTc2fSx7IngiOjc5OC45Njg3NSwieSI6Mzg5LjAyNTAwMDAwMDM3MjUzfSx7IngiOjkyMy45Njg3NSwieSI6Mzg5LjAyNTAwMDAwMDM3MjUzfSx7IngiOjEwNDguOTY4NzUsInkiOjM4OS4wMjUwMDAwMDAzNzI1M30seyJ4IjoxMDczLjk2ODc1LCJ5IjozODkuMDI1MDAwMDAwMzcyNTN9XQ==" data-look="classic"/><path d="M1220.703,821.315L1238.747,827.691C1256.792,834.068,1292.88,846.822,1315.091,853.198C1337.302,859.575,1345.635,859.575,1353.969,859.575C1362.302,859.575,1370.635,859.575,1378.969,859.575C1387.302,859.575,1395.635,859.575,1399.802,859.575L1403.969,859.575" id="my-svg-Expired-Expired----note-10" class="edge-thickness-normal edge-pattern-solid transition note-edge" style="fill:none;;;fill:none" data-edge="true" data-et="edge" data-id="Expired-Expired----note-10" data-points="W3sieCI6MTIyMC43MDMxMjUsInkiOjgyMS4zMTQ3MDE0NTIyOTg2fSx7IngiOjEzMjguOTY4NzUsInkiOjg1OS41NzUwMDAwMDExMTc2fSx7IngiOjEzNTMuOTY4NzUsInkiOjg1OS41NzUwMDAwMDExMTc2fSx7IngiOjEzNzguOTY4NzUsInkiOjg1OS41NzUwMDAwMDExMTc2fSx7IngiOjE0MDMuOTY4NzUsInkiOjg1OS41NzUwMDAwMDExMTc2fV0=" data-look="classic"/></g><g class="edgeLabels"><g class="edgeLabel" transform="translate(143.3359375, 584.3250000011176)"><g class="label" data-id="edge0" transform="translate(-96.3359375, -31.5)"><foreignObject width="192.671875" height="63"><div xmlns="http://www.w3.org/1999/xhtml" class="labelBkg" style="display: table-cell; white-space: nowrap; line-height: 1.5; max-width: 200px; text-align: center;"><span class="edgeLabel"><p>CreateHold<br />(checks availability +<br />FOR UPDATE row lock on PG)</p></span></div></foreignObject></g></g><g class="edgeLabel" transform="translate(414.21875, 496.3250000011176)"><g class="label" data-id="edge1" transform="translate(-79.75, -21)"><foreignObject width="159.5" height="42"><div xmlns="http://www.w3.org/1999/xhtml" class="labelBkg" style="display: table-cell; white-space: nowrap; line-height: 1.5; max-width: 200px; text-align: center;"><span class="edgeLabel"><p>ConfirmHold<br />(within ExpiresAt window)</p></span></div></foreignObject></g></g><g class="edgeLabel" transform="translate(658.96875, 652.0750000011176)"><g class="label" data-id="edge2" transform="translate(-49.8046875, -21)"><foreignObject width="99.609375" height="42"><div xmlns="http://www.w3.org/1999/xhtml" class="labelBkg" style="display: table-cell; white-space: nowrap; line-height: 1.5; max-width: 200px; text-align: center;"><span class="edgeLabel"><p>ReleaseHold<br />(manual cancel)</p></span></div></foreignObject></g></g><g class="edgeLabel" transform="translate(658.96875, 810.1000000014901)"><g class="label" data-id="edge3" transform="translate(-71.1953125, -21)"><foreignObject width="142.390625" height="42"><div xmlns="http://www.w3.org/1999/xhtml" class="labelBkg" style="display: table-cell; white-space: nowrap; line-height: 1.5; max-width: 200px; text-align: center;"><span class="edgeLabel"><p>HoldExpirySweepJob<br />(every 5 min, Hangfire)</p></span></div></foreignObject></g></g><g class="edgeLabel"><g class="label" data-id="Held-cyclic-special-1" transform="translate(0, 0)"><foreignObject width="0" height="0"><div xmlns="http://www.w3.org/1999/xhtml" class="labelBkg" style="display: table-cell; white-space: nowrap; line-height: 1.5; max-width: 200px; text-align: center;"><span class="edgeLabel"></span></div></foreignObject></g></g><g class="edgeLabel" transform="translate(923.96875, 519.0500000007451)"><g class="label" data-id="Held-cyclic-special-mid" transform="translate(-100, -42)"><foreignObject width="200" height="84"><div xmlns="http://www.w3.org/1999/xhtml" class="labelBkg" style="display: table; white-space: break-spaces; line-height: 1.5; max-width: 200px; text-align: center; width: 200px;"><span class="edgeLabel"><p>ExtendHold<br />(max 3 extensions,<br />adds TenantSettings.HoldTtlHours)</p></span></div></foreignObject></g></g><g class="edgeLabel"><g class="label" data-id="Held-cyclic-special-2" transform="translate(0, 0)"><foreignObject width="0" height="0"><div xmlns="http://www.w3.org/1999/xhtml" class="labelBkg" style="display: table-cell; white-space: nowrap; line-height: 1.5; max-width: 200px; text-align: center;"><span class="edgeLabel"></span></div></foreignObject></g></g><g class="edgeLabel" transform="translate(923.96875, 695.5750000011176)"><g class="label" data-id="edge5" transform="translate(-80.53125, -21)"><foreignObject width="161.0625" height="42"><div xmlns="http://www.w3.org/1999/xhtml" class="labelBkg" style="display: table-cell; white-space: nowrap; line-height: 1.5; max-width: 200px; text-align: center;"><span class="edgeLabel"><p>ReleaseHold<br />(post-confirmation cancel)</p></span></div></foreignObject></g></g><g class="edgeLabel"><g class="label" data-id="edge6" transform="translate(0, 0)"><foreignObject width="0" height="0"><div xmlns="http://www.w3.org/1999/xhtml" class="labelBkg" style="display: table-cell; white-space: nowrap; line-height: 1.5; max-width: 200px; text-align: center;"><span class="edgeLabel"></span></div></foreignObject></g></g><g class="edgeLabel"><g class="label" data-id="edge7" transform="translate(0, 0)"><foreignObject width="0" height="0"><div xmlns="http://www.w3.org/1999/xhtml" class="labelBkg" style="display: table-cell; white-space: nowrap; line-height: 1.5; max-width: 200px; text-align: center;"><span class="edgeLabel"></span></div></foreignObject></g></g><g class="edgeLabel"><g class="label" data-id="Held-Held----note-8" transform="translate(0, 0)"><foreignObject width="0" height="0"><div xmlns="http://www.w3.org/1999/xhtml" class="labelBkg" style="display: table-cell; white-space: nowrap; line-height: 1.5; max-width: 200px; text-align: center;"><span class="edgeLabel"></span></div></foreignObject></g></g><g class="edgeLabel"><g class="label" data-id="Confirmed-Confirmed----note-9" transform="translate(0, 0)"><foreignObject width="0" height="0"><div xmlns="http://www.w3.org/1999/xhtml" class="labelBkg" style="display: table-cell; white-space: nowrap; line-height: 1.5; max-width: 200px; text-align: center;"><span class="edgeLabel"></span></div></foreignObject></g></g><g class="edgeLabel"><g class="label" data-id="Expired-Expired----note-10" transform="translate(0, 0)"><foreignObject width="0" height="0"><div xmlns="http://www.w3.org/1999/xhtml" class="labelBkg" style="display: table-cell; white-space: nowrap; line-height: 1.5; max-width: 200px; text-align: center;"><span class="edgeLabel"></span></div></foreignObject></g></g></g><g class="nodes"><g class="node default" id="my-svg-state-root_start-0" data-look="classic" transform="translate(15, 584.3250000011176)"><circle class="state-start" r="7" width="14" height="14"/></g><g class="node  statediagram-state" id="my-svg-state-Held-8" data-look="classic" transform="translate(287.0703125, 584.3250000011176)"><rect class="basic label-container" style="" rx="5" ry="5" x="-22.3984375" y="-18.5" width="44.796875" height="37"/><g class="label" style="" transform="translate(-14.3984375, -10.5)"><rect/><foreignObject width="28.796875" height="21"><div xmlns="http://www.w3.org/1999/xhtml" style="display: table-cell; white-space: nowrap; line-height: 1.5; max-width: 200px; text-align: center;"><span class="nodeLabel markdown-node-label"><p>Held</p></span></div></foreignObject></g></g><g class="node  statediagram-state" id="my-svg-state-Confirmed-9" data-look="classic" transform="translate(658.96875, 496.3250000011176)"><rect class="basic label-container" style="" rx="5" ry="5" x="-40.296875" y="-18.5" width="80.59375" height="37"/><g class="label" style="" transform="translate(-32.296875, -10.5)"><rect/><foreignObject width="64.59375" height="21"><div xmlns="http://www.w3.org/1999/xhtml" style="display: table-cell; white-space: nowrap; line-height: 1.5; max-width: 200px; text-align: center;"><span class="nodeLabel markdown-node-label"><p>Confirmed</p></span></div></foreignObject></g></g><g class="node  statediagram-state" id="my-svg-state-Released-6" data-look="classic" transform="translate(1188.96875, 684.3500000014901)"><rect class="basic label-container" style="" rx="5" ry="5" x="-37.578125" y="-18.5" width="75.15625" height="37"/><g class="label" style="" transform="translate(-29.578125, -10.5)"><rect/><foreignObject width="59.15625" height="21"><div xmlns="http://www.w3.org/1999/xhtml" style="display: table-cell; white-space: nowrap; line-height: 1.5; max-width: 200px; text-align: center;"><span class="nodeLabel markdown-node-label"><p>Released</p></span></div></foreignObject></g></g><g class="node  statediagram-state" id="my-svg-state-Expired-10" data-look="classic" transform="translate(1188.96875, 810.1000000014901)"><rect class="basic label-container" style="" rx="5" ry="5" x="-31.734375" y="-18.5" width="63.46875" height="37"/><g class="label" style="" transform="translate(-23.734375, -10.5)"><rect/><foreignObject width="47.46875" height="21"><div xmlns="http://www.w3.org/1999/xhtml" style="display: table-cell; white-space: nowrap; line-height: 1.5; max-width: 200px; text-align: center;"><span class="nodeLabel markdown-node-label"><p>Expired</p></span></div></foreignObject></g></g><g class="node default" id="my-svg-state-root_end-7" data-look="classic" transform="translate(1518.96875, 694.3500000014901)"><g class="outer-path"><path d="M7 0 C7 0.40517908122283747, 6.964012880168563 0.816513743121899, 6.893654271085456 1.2155372436685123 C6.823295662002349 1.6145607442151257, 6.716427752933756 2.013397210557766, 6.5778483455013586 2.394141003279681 C6.439268938068961 2.7748847960015954, 6.26476736710249 3.149104622578984, 6.062177826491071 3.4999999999999996 C5.859588285879653 3.8508953774210153, 5.622755194947063 4.189128084166967, 5.362311101832846 4.499513267805774 C5.10186700871863 4.809898451444582, 4.809898451444583 5.10186700871863, 4.499513267805775 5.362311101832846 C4.189128084166968 5.622755194947063, 3.8508953774210166 5.859588285879652, 3.500000000000001 6.06217782649107 C3.149104622578985 6.264767367102489, 2.7748847960015963 6.439268938068961, 2.3941410032796817 6.5778483455013586 C2.013397210557767 6.716427752933756, 1.6145607442151264 6.823295662002349, 1.2155372436685128 6.893654271085456 C0.8165137431218992 6.964012880168563, 0.4051790812228379 7, 4.286263797015736e-16 7 C-0.405179081222837 7, -0.8165137431218985 6.964012880168563, -1.2155372436685121 6.893654271085456 C-1.6145607442151257 6.823295662002349, -2.0133972105577667 6.716427752933756, -2.394141003279681 6.5778483455013586 C-2.774884796001595 6.439268938068961, -3.149104622578983 6.26476736710249, -3.4999999999999982 6.062177826491071 C-3.8508953774210135 5.859588285879653, -4.189128084166966 5.6227551949470636, -4.499513267805773 5.362311101832848 C-4.809898451444581 5.101867008718632, -5.101867008718628 4.809898451444586, -5.3623111018328435 4.499513267805779 C-5.622755194947059 4.189128084166971, -5.859588285879649 3.8508953774210206, -6.062177826491068 3.5000000000000053 C-6.264767367102486 3.14910462257899, -6.439268938068958 2.774884796001602, -6.577848345501356 2.394141003279688 C-6.716427752933754 2.0133972105577738, -6.823295662002347 1.614560744215134, -6.893654271085454 1.215537243668521 C-6.9640128801685615 0.816513743121908, -6.999999999999999 0.4051790812228472, -7 1.0183126166254463e-14 C-7.000000000000001 -0.40517908122282686, -6.964012880168565 -0.8165137431218878, -6.893654271085459 -1.215537243668501 C-6.823295662002352 -1.6145607442151142, -6.716427752933759 -2.0133972105577542, -6.577848345501363 -2.394141003279669 C-6.439268938068967 -2.7748847960015834, -6.264767367102496 -3.149104622578972, -6.062177826491078 -3.4999999999999876 C-5.859588285879661 -3.8508953774210033, -5.6227551949470715 -4.1891280841669545, -5.362311101832856 -4.499513267805763 C-5.10186700871864 -4.809898451444571, -4.809898451444594 -5.10186700871862, -4.499513267805787 -5.362311101832836 C-4.189128084166979 -5.622755194947053, -3.850895377421028 -5.859588285879643, -3.5000000000000133 -6.062177826491062 C-3.1491046225789985 -6.264767367102482, -2.774884796001611 -6.439268938068954, -2.3941410032796973 -6.577848345501353 C-2.0133972105577835 -6.716427752933752, -1.6145607442151435 -6.823295662002345, -1.2155372436685306 -6.893654271085453 C-0.8165137431219176 -6.9640128801685615, -0.40517908122285695 -6.999999999999999, -1.9937625952807352e-14 -7 C0.4051790812228171 -7.000000000000001, 0.8165137431218781 -6.964012880168565, 1.2155372436684913 -6.89365427108546 C1.6145607442151044 -6.823295662002354, 2.013397210557745 -6.716427752933763, 2.3941410032796595 -6.5778483455013665 C2.774884796001574 -6.43926893806897, 3.149104622578963 -6.2647673671025, 3.499999999999979 -6.062177826491083 C3.8508953774209953 -5.859588285879665, 4.189128084166947 -5.622755194947077, 4.499513267805756 -5.362311101832862 C4.809898451444564 -5.1018670087186475, 5.101867008718613 -4.809898451444602, 5.362311101832829 -4.499513267805796 C5.622755194947046 -4.189128084166989, 5.859588285879637 -3.8508953774210393, 6.062177826491056 -3.500000000000025 C6.2647673671024755 -3.1491046225790105, 6.439268938068949 -2.774884796001623, 6.577848345501348 -2.3941410032797092 C6.716427752933747 -2.0133972105577955, 6.823295662002342 -1.6145607442151562, 6.893654271085451 -1.2155372436685434 C6.96401288016856 -0.8165137431219307, 6.982275711847575 -0.2025895406114567, 7 -3.2800750208310675e-14 C7.017724288152425 0.2025895406113911, 7.017724288152424 -0.2025895406114242, 7 0" stroke="none" stroke-width="0" fill="#fff4dd" style=""/><path d="M7 0 C7 0.40517908122283747, 6.964012880168563 0.816513743121899, 6.893654271085456 1.2155372436685123 C6.823295662002349 1.6145607442151257, 6.716427752933756 2.013397210557766, 6.5778483455013586 2.394141003279681 C6.439268938068961 2.7748847960015954, 6.26476736710249 3.149104622578984, 6.062177826491071 3.4999999999999996 C5.859588285879653 3.8508953774210153, 5.622755194947063 4.189128084166967, 5.362311101832846 4.499513267805774 C5.10186700871863 4.809898451444582, 4.809898451444583 5.10186700871863, 4.499513267805775 5.362311101832846 C4.189128084166968 5.622755194947063, 3.8508953774210166 5.859588285879652, 3.500000000000001 6.06217782649107 C3.149104622578985 6.264767367102489, 2.7748847960015963 6.439268938068961, 2.3941410032796817 6.5778483455013586 C2.013397210557767 6.716427752933756, 1.6145607442151264 6.823295662002349, 1.2155372436685128 6.893654271085456 C0.8165137431218992 6.964012880168563, 0.4051790812228379 7, 4.286263797015736e-16 7 C-0.405179081222837 7, -0.8165137431218985 6.964012880168563, -1.2155372436685121 6.893654271085456 C-1.6145607442151257 6.823295662002349, -2.0133972105577667 6.716427752933756, -2.394141003279681 6.5778483455013586 C-2.774884796001595 6.439268938068961, -3.149104622578983 6.26476736710249, -3.4999999999999982 6.062177826491071 C-3.8508953774210135 5.859588285879653, -4.189128084166966 5.6227551949470636, -4.499513267805773 5.362311101832848 C-4.809898451444581 5.101867008718632, -5.101867008718628 4.809898451444586, -5.3623111018328435 4.499513267805779 C-5.622755194947059 4.189128084166971, -5.859588285879649 3.8508953774210206, -6.062177826491068 3.5000000000000053 C-6.264767367102486 3.14910462257899, -6.439268938068958 2.774884796001602, -6.577848345501356 2.394141003279688 C-6.716427752933754 2.0133972105577738, -6.823295662002347 1.614560744215134, -6.893654271085454 1.215537243668521 C-6.9640128801685615 0.816513743121908, -6.999999999999999 0.4051790812228472, -7 1.0183126166254463e-14 C-7.000000000000001 -0.40517908122282686, -6.964012880168565 -0.8165137431218878, -6.893654271085459 -1.215537243668501 C-6.823295662002352 -1.6145607442151142, -6.716427752933759 -2.0133972105577542, -6.577848345501363 -2.394141003279669 C-6.439268938068967 -2.7748847960015834, -6.264767367102496 -3.149104622578972, -6.062177826491078 -3.4999999999999876 C-5.859588285879661 -3.8508953774210033, -5.6227551949470715 -4.1891280841669545, -5.362311101832856 -4.499513267805763 C-5.10186700871864 -4.809898451444571, -4.809898451444594 -5.10186700871862, -4.499513267805787 -5.362311101832836 C-4.189128084166979 -5.622755194947053, -3.850895377421028 -5.859588285879643, -3.5000000000000133 -6.062177826491062 C-3.1491046225789985 -6.264767367102482, -2.774884796001611 -6.439268938068954, -2.3941410032796973 -6.577848345501353 C-2.0133972105577835 -6.716427752933752, -1.6145607442151435 -6.823295662002345, -1.2155372436685306 -6.893654271085453 C-0.8165137431219176 -6.9640128801685615, -0.40517908122285695 -6.999999999999999, -1.9937625952807352e-14 -7 C0.4051790812228171 -7.000000000000001, 0.8165137431218781 -6.964012880168565, 1.2155372436684913 -6.89365427108546 C1.6145607442151044 -6.823295662002354, 2.013397210557745 -6.716427752933763, 2.3941410032796595 -6.5778483455013665 C2.774884796001574 -6.43926893806897, 3.149104622578963 -6.2647673671025, 3.499999999999979 -6.062177826491083 C3.8508953774209953 -5.859588285879665, 4.189128084166947 -5.622755194947077, 4.499513267805756 -5.362311101832862 C4.809898451444564 -5.1018670087186475, 5.101867008718613 -4.809898451444602, 5.362311101832829 -4.499513267805796 C5.622755194947046 -4.189128084166989, 5.859588285879637 -3.8508953774210393, 6.062177826491056 -3.500000000000025 C6.2647673671024755 -3.1491046225790105, 6.439268938068949 -2.774884796001623, 6.577848345501348 -2.3941410032797092 C6.716427752933747 -2.0133972105577955, 6.823295662002342 -1.6145607442151562, 6.893654271085451 -1.2155372436685434 C6.96401288016856 -0.8165137431219307, 6.982275711847575 -0.2025895406114567, 7 -3.2800750208310675e-14 C7.017724288152425 0.2025895406113911, 7.017724288152424 -0.2025895406114242, 7 0" stroke="#0b0b0b" stroke-width="2" fill="none" stroke-dasharray="0 0" style=""/><g><path d="M2.5 0 C2.5 0.14470681472244193, 2.487147457203058 0.29161205111496386, 2.46201938253052 0.4341204441673258 C2.436891307857982 0.5766288372196877, 2.3987241974763416 0.7190704323420595, 2.3492315519647713 0.8550503583141718 C2.299738906453201 0.991030284286284, 2.2374169168223177 1.124680222349637, 2.165063509461097 1.2499999999999998 C2.092710102099876 1.3753197776503625, 2.0081268553382365 1.496117172916774, 1.915111107797445 1.6069690242163481 C1.8220953602566536 1.7178208755159223, 1.7178208755159226 1.8220953602566536, 1.6069690242163484 1.915111107797445 C1.4961171729167742 2.0081268553382365, 1.375319777650363 2.0927101020998755, 1.2500000000000002 2.1650635094610964 C1.1246802223496375 2.2374169168223172, 0.9910302842862845 2.2997389064532, 0.8550503583141721 2.349231551964771 C0.7190704323420597 2.3987241974763416, 0.576628837219688 2.436891307857982, 0.43412044416732604 2.46201938253052 C0.291612051114964 2.487147457203058, 0.14470681472244212 2.5, 1.5308084989341916e-16 2.5 C-0.1447068147224418 2.5, -0.2916120511149638 2.487147457203058, -0.43412044416732576 2.46201938253052 C-0.5766288372196877 2.436891307857982, -0.7190704323420595 2.3987241974763416, -0.8550503583141718 2.3492315519647713 C-0.991030284286284 2.299738906453201, -1.124680222349637 2.2374169168223177, -1.2499999999999996 2.165063509461097 C-1.375319777650362 2.092710102099876, -1.4961171729167733 2.008126855338237, -1.6069690242163475 1.9151111077974459 C-1.7178208755159217 1.8220953602566548, -1.822095360256653 1.7178208755159234, -1.9151111077974443 1.6069690242163495 C-2.0081268553382357 1.4961171729167755, -2.0927101020998746 1.3753197776503645, -2.1650635094610955 1.250000000000002 C-2.2374169168223164 1.1246802223496395, -2.2997389064531992 0.9910302842862865, -2.34923155196477 0.8550503583141743 C-2.3987241974763407 0.7190704323420621, -2.436891307857981 0.5766288372196907, -2.4620193825305194 0.434120444167329 C-2.487147457203058 0.29161205111496724, -2.5 0.14470681472244545, -2.5 3.636830773662308e-15 C-2.5 -0.14470681472243818, -2.4871474572030587 -0.2916120511149599, -2.4620193825305208 -0.4341204441673218 C-2.436891307857983 -0.5766288372196837, -2.398724197476343 -0.7190704323420553, -2.3492315519647726 -0.8550503583141675 C-2.2997389064532023 -0.9910302842862798, -2.23741691682232 -1.1246802223496328, -2.165063509461099 -1.2499999999999956 C-2.092710102099878 -1.3753197776503583, -2.00812685533824 -1.4961171729167695, -1.9151111077974488 -1.606969024216344 C-1.8220953602566576 -1.7178208755159183, -1.7178208755159263 -1.82209536025665, -1.6069690242163523 -1.9151111077974416 C-1.4961171729167784 -2.0081268553382334, -1.3753197776503672 -2.0927101020998724, -1.2500000000000047 -2.1650635094610937 C-1.1246802223496422 -2.237416916822315, -0.9910302842862897 -2.299738906453198, -0.8550503583141776 -2.3492315519647686 C-0.7190704323420656 -2.3987241974763394, -0.5766288372196942 -2.4368913078579806, -0.43412044416733236 -2.462019382530519 C-0.29161205111497057 -2.4871474572030574, -0.1447068147224489 -2.4999999999999996, -7.120580697431198e-15 -2.5 C0.14470681472243463 -2.5000000000000004, 0.29161205111495647 -2.487147457203059, 0.4341204441673183 -2.4620193825305217 C0.5766288372196802 -2.436891307857984, 0.7190704323420518 -2.3987241974763442, 0.8550503583141642 -2.349231551964774 C0.9910302842862766 -2.2997389064532037, 1.1246802223496295 -2.2374169168223212, 1.2499999999999925 -2.165063509461101 C1.3753197776503554 -2.0927101020998804, 1.4961171729167668 -2.008126855338242, 1.6069690242163412 -1.915111107797451 C1.7178208755159157 -1.82209536025666, 1.8220953602566472 -1.7178208755159294, 1.915111107797439 -1.6069690242163557 C2.0081268553382308 -1.496117172916782, 2.09271010209987 -1.3753197776503712, 2.1650635094610915 -1.2500000000000089 C2.237416916822313 -1.1246802223496466, 2.299738906453196 -0.9910302842862939, 2.3492315519647673 -0.855050358314182 C2.3987241974763385 -0.71907043234207, 2.4368913078579792 -0.5766288372196986, 2.462019382530518 -0.4341204441673369 C2.487147457203057 -0.29161205111497523, 2.4936698970884197 -0.07235340736123454, 2.5 -1.1714553645825241e-14 C2.5063301029115803 0.07235340736121111, 2.50633010291158 -0.07235340736122292, 2.5 0" stroke="none" stroke-width="0" fill="hsl(40.5882352941, 60%, 83.3333333333%)" style=""/><path d="M2.5 0 C2.5 0.14470681472244193, 2.487147457203058 0.29161205111496386, 2.46201938253052 0.4341204441673258 C2.436891307857982 0.5766288372196877, 2.3987241974763416 0.7190704323420595, 2.3492315519647713 0.8550503583141718 C2.299738906453201 0.991030284286284, 2.2374169168223177 1.124680222349637, 2.165063509461097 1.2499999999999998 C2.092710102099876 1.3753197776503625, 2.0081268553382365 1.496117172916774, 1.915111107797445 1.6069690242163481 C1.8220953602566536 1.7178208755159223, 1.7178208755159226 1.8220953602566536, 1.6069690242163484 1.915111107797445 C1.4961171729167742 2.0081268553382365, 1.375319777650363 2.0927101020998755, 1.2500000000000002 2.1650635094610964 C1.1246802223496375 2.2374169168223172, 0.9910302842862845 2.2997389064532, 0.8550503583141721 2.349231551964771 C0.7190704323420597 2.3987241974763416, 0.576628837219688 2.436891307857982, 0.43412044416732604 2.46201938253052 C0.291612051114964 2.487147457203058, 0.14470681472244212 2.5, 1.5308084989341916e-16 2.5 C-0.1447068147224418 2.5, -0.2916120511149638 2.487147457203058, -0.43412044416732576 2.46201938253052 C-0.5766288372196877 2.436891307857982, -0.7190704323420595 2.3987241974763416, -0.8550503583141718 2.3492315519647713 C-0.991030284286284 2.299738906453201, -1.124680222349637 2.2374169168223177, -1.2499999999999996 2.165063509461097 C-1.375319777650362 2.092710102099876, -1.4961171729167733 2.008126855338237, -1.6069690242163475 1.9151111077974459 C-1.7178208755159217 1.8220953602566548, -1.822095360256653 1.7178208755159234, -1.9151111077974443 1.6069690242163495 C-2.0081268553382357 1.4961171729167755, -2.0927101020998746 1.3753197776503645, -2.1650635094610955 1.250000000000002 C-2.2374169168223164 1.1246802223496395, -2.2997389064531992 0.9910302842862865, -2.34923155196477 0.8550503583141743 C-2.3987241974763407 0.7190704323420621, -2.436891307857981 0.5766288372196907, -2.4620193825305194 0.434120444167329 C-2.487147457203058 0.29161205111496724, -2.5 0.14470681472244545, -2.5 3.636830773662308e-15 C-2.5 -0.14470681472243818, -2.4871474572030587 -0.2916120511149599, -2.4620193825305208 -0.4341204441673218 C-2.436891307857983 -0.5766288372196837, -2.398724197476343 -0.7190704323420553, -2.3492315519647726 -0.8550503583141675 C-2.2997389064532023 -0.9910302842862798, -2.23741691682232 -1.1246802223496328, -2.165063509461099 -1.2499999999999956 C-2.092710102099878 -1.3753197776503583, -2.00812685533824 -1.4961171729167695, -1.9151111077974488 -1.606969024216344 C-1.8220953602566576 -1.7178208755159183, -1.7178208755159263 -1.82209536025665, -1.6069690242163523 -1.9151111077974416 C-1.4961171729167784 -2.0081268553382334, -1.3753197776503672 -2.0927101020998724, -1.2500000000000047 -2.1650635094610937 C-1.1246802223496422 -2.237416916822315, -0.9910302842862897 -2.299738906453198, -0.8550503583141776 -2.3492315519647686 C-0.7190704323420656 -2.3987241974763394, -0.5766288372196942 -2.4368913078579806, -0.43412044416733236 -2.462019382530519 C-0.29161205111497057 -2.4871474572030574, -0.1447068147224489 -2.4999999999999996, -7.120580697431198e-15 -2.5 C0.14470681472243463 -2.5000000000000004, 0.29161205111495647 -2.487147457203059, 0.4341204441673183 -2.4620193825305217 C0.5766288372196802 -2.436891307857984, 0.7190704323420518 -2.3987241974763442, 0.8550503583141642 -2.349231551964774 C0.9910302842862766 -2.2997389064532037, 1.1246802223496295 -2.2374169168223212, 1.2499999999999925 -2.165063509461101 C1.3753197776503554 -2.0927101020998804, 1.4961171729167668 -2.008126855338242, 1.6069690242163412 -1.915111107797451 C1.7178208755159157 -1.82209536025666, 1.8220953602566472 -1.7178208755159294, 1.915111107797439 -1.6069690242163557 C2.0081268553382308 -1.496117172916782, 2.09271010209987 -1.3753197776503712, 2.1650635094610915 -1.2500000000000089 C2.237416916822313 -1.1246802223496466, 2.299738906453196 -0.9910302842862939, 2.3492315519647673 -0.855050358314182 C2.3987241974763385 -0.71907043234207, 2.4368913078579792 -0.5766288372196986, 2.462019382530518 -0.4341204441673369 C2.487147457203057 -0.29161205111497523, 2.4936698970884197 -0.07235340736123454, 2.5 -1.1714553645825241e-14 C2.5063301029115803 0.07235340736121111, 2.50633010291158 -0.07235340736122292, 2.5 0" stroke="hsl(40.5882352941, 60%, 83.3333333333%)" stroke-width="2" fill="none" stroke-dasharray="0 0" style=""/></g></g></g><g class="node statediagram-note" id="my-svg-state-Held----note-8" data-look="classic" transform="translate(658.96875, 173.5)"><g class="basic label-container outer-path"><path d="M-115 -130.5 L115 -130.5 L115 130.5 L-115 130.5" stroke="none" stroke-width="0" fill="#fff5ad" style=""/><path d="M-115 -130.5 C-53.833003644841305 -130.5, 7.333992710317389 -130.5, 115 -130.5 M-115 -130.5 C-41.12852199405448 -130.5, 32.74295601189104 -130.5, 115 -130.5 M115 -130.5 C115 -66.12109354808828, 115 -1.7421870961765649, 115 130.5 M115 -130.5 C115 -51.19146121472781, 115 28.11707757054438, 115 130.5 M115 130.5 C26.455991681025196 130.5, -62.08801663794961 130.5, -115 130.5 M115 130.5 C38.75734870671856 130.5, -37.48530258656288 130.5, -115 130.5 M-115 130.5 C-115 59.90325474989436, -115 -10.693490500211283, -115 -130.5 M-115 130.5 C-115 30.797394895563784, -115 -68.90521020887243, -115 -130.5" stroke="hsl(52.6829268293, 60%, 73.9215686275%)" stroke-width="1.3" fill="none" stroke-dasharray="0 0" style=""/></g><g class="label noteLabel" style="" transform="translate(-100, -115.5)"><rect/><foreignObject width="200" height="231"><div xmlns="http://www.w3.org/1999/xhtml" style="display: table; white-space: break-spaces; line-height: 1.5; max-width: 200px; text-align: center; width: 200px;"><span class="nodeLabel markdown-node-label"><p>Slot rules:<br />whole-day collides with everything<br />slot collides with same slot OR whole-day<br />Quantity rules:<br />AssetResource → quantity must be 1<br />PoolResource  → quantity ≤ DefaultCapacity (overridable per date via Calendar)</p></span></div></foreignObject></g></g><g class="node statediagram-note" id="my-svg-state-Confirmed----note-9" data-look="classic" transform="translate(1188.96875, 389.02500000037253)"><g class="basic label-container outer-path"><path d="M-115 -67.5 L115 -67.5 L115 67.5 L-115 67.5" stroke="none" stroke-width="0" fill="#fff5ad" style=""/><path d="M-115 -67.5 C-55.95216444606318 -67.5, 3.095671107873642 -67.5, 115 -67.5 M-115 -67.5 C-66.06687817383485 -67.5, -17.133756347669703 -67.5, 115 -67.5 M115 -67.5 C115 -24.7499564636043, 115 18.000087072791402, 115 67.5 M115 -67.5 C115 -20.36551144482597, 115 26.76897711034806, 115 67.5 M115 67.5 C65.33468940586029 67.5, 15.669378811720577 67.5, -115 67.5 M115 67.5 C65.10554088597831 67.5, 15.211081771956643 67.5, -115 67.5 M-115 67.5 C-115 31.920355332056772, -115 -3.6592893358864558, -115 -67.5 M-115 67.5 C-115 30.229722681094835, -115 -7.040554637810331, -115 -67.5" stroke="hsl(52.6829268293, 60%, 73.9215686275%)" stroke-width="1.3" fill="none" stroke-dasharray="0 0" style=""/></g><g class="label noteLabel" style="" transform="translate(-100, -52.5)"><rect/><foreignObject width="200" height="105"><div xmlns="http://www.w3.org/1999/xhtml" style="display: table; white-space: break-spaces; line-height: 1.5; max-width: 200px; text-align: center; width: 200px;"><span class="nodeLabel markdown-node-label"><p>ExpiresAt is cleared on confirmation.<br />A confirmed hold is the source of truth<br />for future booking integrations.</p></span></div></foreignObject></g></g><g class="node statediagram-note" id="my-svg-state-Expired----note-10" data-look="classic" transform="translate(1518.96875, 859.5750000011176)"><g class="basic label-container outer-path"><path d="M-115 -67.5 L115 -67.5 L115 67.5 L-115 67.5" stroke="none" stroke-width="0" fill="#fff5ad" style=""/><path d="M-115 -67.5 C-34.17964666145484 -67.5, 46.64070667709032 -67.5, 115 -67.5 M-115 -67.5 C-32.133116517723465 -67.5, 50.73376696455307 -67.5, 115 -67.5 M115 -67.5 C115 -39.76157161796745, 115 -12.023143235934889, 115 67.5 M115 -67.5 C115 -30.821713122983503, 115 5.856573754032993, 115 67.5 M115 67.5 C51.270765982977835 67.5, -12.45846803404433 67.5, -115 67.5 M115 67.5 C40.885794147541915 67.5, -33.22841170491617 67.5, -115 67.5 M-115 67.5 C-115 13.845940603178654, -115 -39.80811879364269, -115 -67.5 M-115 67.5 C-115 33.461804005708885, -115 -0.5763919885822304, -115 -67.5" stroke="hsl(52.6829268293, 60%, 73.9215686275%)" stroke-width="1.3" fill="none" stroke-dasharray="0 0" style=""/></g><g class="label noteLabel" style="" transform="translate(-100, -52.5)"><rect/><foreignObject width="200" height="105"><div xmlns="http://www.w3.org/1999/xhtml" style="display: table; white-space: break-spaces; line-height: 1.5; max-width: 200px; text-align: center; width: 200px;"><span class="nodeLabel markdown-node-label"><p>Terminal state.<br />ReleaseHold rejects: "Hold is in terminal state".<br />Capacity freed for the next CreateHold.</p></span></div></foreignObject></g></g><g class="label edgeLabel" id="Held---Held---1" transform="translate(658.96875, 427.77500000037253)"><rect width="0.1" height="0.1"/><g class="label" style="" transform="translate(0, 0)"><rect/><foreignObject width="0" height="0"><div xmlns="http://www.w3.org/1999/xhtml" style="display: table-cell; white-space: nowrap; line-height: 1.5; max-width: 10px; text-align: center;"><span class="nodeLabel"></span></div></foreignObject></g></g><g class="label edgeLabel" id="Held---Held---2" transform="translate(1188.96875, 591.8500000014901)"><rect width="0.1" height="0.1"/><g class="label" style="" transform="translate(0, 0)"><rect/><foreignObject width="0" height="0"><div xmlns="http://www.w3.org/1999/xhtml" style="display: table-cell; white-space: nowrap; line-height: 1.5; max-width: 10px; text-align: center;"><span class="nodeLabel"></span></div></foreignObject></g></g></g></g></g><defs><filter id="my-svg-drop-shadow" height="130%" width="130%"><feDropShadow dx="4" dy="4" stdDeviation="0" flood-opacity="0.06" flood-color="#000000"/></filter></defs><defs><filter id="my-svg-drop-shadow-small" height="150%" width="150%"><feDropShadow dx="2" dy="2" stdDeviation="0" flood-opacity="0.06" flood-color="#000000"/></filter></defs><linearGradient id="my-svg-gradient" gradientUnits="objectBoundingBox" x1="0%" y1="0%" x2="100%" y2="0%"><stop offset="0%" stop-color="hsl(40.5882352941, 60%, 83.3333333333%)" stop-opacity="1"/><stop offset="100%" stop-color="hsl(-79.4117647059, 60%, 83.3333333333%)" stop-opacity="1"/></linearGradient></svg>